<?xml version="1.0" standalone="no"?>
<!DOCTYPE svg PUBLIC "-//W3C//DTD SVG 20010904//EN"
 "http://www.w3.org/TR/2001/REC-SVG-20010904/DTD/svg10.dtd">
<svg version="1.0" xmlns="http://www.w3.org/2000/svg"
 width="480.000000pt" height="480.000000pt" viewBox="0 0 480.000000 480.000000"
 preserveAspectRatio="xMidYMid meet">
<metadata>
Created by potrace 1.11, written by Peter Selinger 2001-2013
</metadata>
<g transform="translate(0.000000,480.000000) scale(0.100000,-0.100000)"
fill="#000000" stroke="none">
<path d="M1709 4332 c-37 -22 -291 -198 -324 -224 -5 -4 -89 -67 -185 -140
-96 -72 -177 -134 -180 -137 -3 -3 -36 -32 -75 -63 -38 -31 -93 -80 -121 -110
-75 -78 -250 -305 -408 -531 -76 -108 -154 -213 -173 -233 -19 -20 -31 -40
-26 -44 64 -56 435 -345 459 -358 18 -9 25 -7 44 15 20 24 123 162 160 216 8
12 72 99 142 194 120 160 190 243 207 243 7 0 167 -159 291 -290 34 -36 99
-103 144 -151 44 -47 117 -123 161 -170 44 -47 106 -113 138 -146 56 -60 57
-62 57 -119 0 -52 -7 -68 -14 -32 -2 7 -6 20 -9 28 -3 8 -13 38 -22 65 -11 34
-23 54 -40 62 -14 6 -23 7 -20 3 3 -5 -12 -10 -32 -12 -31 -2 -37 -7 -35 -22
2 -13 -1 -16 -10 -10 -10 6 -10 4 -2 -7 15 -20 16 -61 1 -52 -7 4 -5 -1 3 -12
17 -21 17 -24 -2 -36 -10 -7 -10 -9 0 -9 6 0 12 -5 12 -11 0 -5 -6 -7 -12 -3
-9 5 -9 2 1 -9 11 -14 11 -17 0 -17 -11 0 -11 -2 0 -9 13 -8 13 -12 0 -27 -8
-10 -9 -15 -3 -11 7 4 12 -2 12 -18 0 -14 -4 -22 -9 -19 -5 3 -9 0 -9 -5 0 -6
4 -11 9 -11 5 0 9 -11 9 -25 0 -14 -5 -22 -11 -18 -6 4 -7 1 -1 -8 13 -21 14
-39 1 -39 -8 0 -8 -3 -2 -8 15 -11 18 -42 3 -42 -10 0 -9 -3 1 -9 12 -8 12
-12 2 -24 -9 -12 -9 -17 0 -23 8 -5 10 -3 4 7 -6 11 -5 11 5 2 11 -10 -6 -31
-83 -110 -52 -54 -119 -123 -147 -153 -239 -254 -409 -429 -611 -633 -193
-194 -236 -242 -232 -260 13 -58 48 -155 65 -179 21 -30 90 -65 195 -99 l72
-23 28 31 c47 51 93 102 213 238 63 71 129 146 147 165 17 19 41 46 53 60 12
14 46 52 75 86 30 33 63 70 74 82 10 13 46 53 79 90 32 37 137 155 232 262
257 290 311 351 355 398 l41 44 106 -109 c58 -59 121 -124 139 -144 51 -55
271 -289 299 -319 14 -14 84 -88 155 -165 72 -77 144 -153 160 -171 17 -17 77
-82 135 -144 58 -63 116 -125 130 -140 14 -14 66 -70 115 -124 l90 -98 50 5
c69 8 177 43 209 68 32 25 64 85 82 154 22 81 19 98 -24 117 -20 10 -75 54
-122 99 -47 45 -168 161 -270 258 -101 97 -239 228 -305 292 -66 63 -158 152
-205 196 -194 186 -230 222 -230 228 0 4 6 2 14 -4 10 -9 16 -8 26 4 10 12 10
15 -1 15 -9 0 -10 3 -4 8 11 8 13 32 3 48 -4 6 -5 14 -1 18 10 9 9 146 -1 146
-5 0 -4 6 2 13 8 9 -7 12 -71 12 l-82 0 1 -33 c1 -19 6 -37 13 -41 8 -5 11
-26 9 -56 l-3 -47 -20 23 c-12 13 -14 19 -5 14 12 -6 13 -5 3 5 -9 9 -9 19 -2
33 6 11 7 17 1 13 -12 -7 -10 94 2 113 6 10 6 12 -2 7 -7 -4 -12 -3 -12 3 0 5
5 13 11 17 8 4 7 9 -2 15 -11 7 -11 9 1 9 13 0 13 1 0 10 -13 9 -13 11 0 20
13 9 13 10 0 10 -13 0 -13 2 0 9 19 13 32 4 29 -22 0 -12 -1 -35 0 -51 1 -24
3 -26 16 -16 21 17 39 3 23 -18 -9 -12 -5 -11 10 2 25 22 62 29 62 12 0 -6 7
-3 15 8 11 14 12 24 4 39 -9 15 -8 18 3 11 11 -6 11 -5 -1 9 -11 14 -11 17 0
17 10 0 10 3 3 8 -12 8 -29 52 -26 65 1 5 -1 6 -6 3 -5 -3 -19 4 -31 15 -12
11 -25 18 -29 15 -4 -2 -14 -1 -21 3 -10 7 -5 18 21 47 19 22 161 182 317 357
l282 317 27 -19 c15 -11 74 -67 132 -126 70 -70 125 -116 164 -136 32 -17 72
-38 90 -48 17 -10 85 -46 151 -81 66 -34 134 -71 150 -80 17 -10 93 -50 170
-90 77 -40 154 -81 170 -90 17 -9 38 -19 48 -23 13 -5 -30 88 -136 296 -85
166 -165 322 -179 347 -14 25 -57 106 -96 180 -51 96 -82 141 -105 157 -58 40
-158 138 -161 158 -4 24 14 59 49 100 l27 30 -31 6 c-17 4 -64 31 -104 61
-105 80 -105 80 -143 51 -52 -39 -43 -46 -415 312 -173 166 -164 159 -187 143
-17 -12 -117 -102 -252 -229 -80 -75 -161 -139 -176 -139 -7 0 -14 -4 -14 -9
0 -5 82 -87 182 -183 312 -298 358 -345 358 -370 0 -32 -40 -80 -250 -302 -47
-49 -96 -101 -110 -116 -14 -15 -101 -107 -195 -205 -93 -97 -186 -196 -207
-218 l-36 -41 64 -62 c35 -33 64 -70 64 -80 0 -17 -3 -16 -23 6 -12 14 -30 38
-40 53 -10 15 -22 25 -28 22 -10 -7 -104 82 -605 580 -214 212 -325 329 -329
348 -17 67 8 92 389 386 125 97 237 183 248 192 19 15 19 16 -8 34 -35 23 -37
25 -181 204 -187 233 -171 220 -234 183z m952 -2118 c2 3 5 -7 5 -20 1 -13 0
-24 -3 -24 -13 0 -33 31 -33 52 1 21 2 22 14 6 7 -10 15 -16 17 -14z m-689
-142 c4 -31 0 -52 -10 -52 -4 0 -7 18 -7 40 0 46 11 53 17 12z"/>
<path d="M2333 3658 c-51 -11 -98 -52 -111 -99 -11 -41 -15 -267 -6 -351 10
-93 66 -139 170 -139 66 0 128 30 151 74 14 27 17 61 18 217 0 202 -7 236 -54
269 -36 26 -116 39 -168 29z m70 -111 c4 -10 3 -348 -2 -369 -2 -12 -31 -10
-33 2 -4 26 -6 338 -2 358 5 24 29 30 37 9z"/>
<path d="M2715 3658 c-68 -10 -114 -58 -116 -120 -3 -112 13 -143 101 -203 82
-55 87 -61 93 -102 6 -38 -13 -69 -37 -60 -12 5 -16 18 -15 49 1 24 1 48 0 53
0 6 -30 10 -71 10 l-70 0 4 -63 c8 -99 43 -138 138 -151 93 -12 171 24 187 86
15 57 8 145 -15 183 -10 18 -53 56 -94 84 -68 47 -75 55 -78 89 -2 27 1 39 13
43 21 9 27 1 30 -38 2 -18 3 -36 4 -39 0 -3 31 -5 69 -4 l67 1 0 45 c1 52 -17
93 -48 114 -34 22 -104 32 -162 23z"/>
<path d="M1858 3638 c-2 -7 -4 -134 -4 -283 l1 -270 75 0 75 0 0 110 0 110 55
6 c65 7 97 24 108 59 7 22 8 103 3 191 -1 32 -29 65 -65 79 -40 15 -243 13
-248 -2z m186 -104 c9 -23 7 -97 -3 -113 -5 -8 -15 -12 -23 -9 -10 4 -13 23
-12 69 2 75 1 69 18 69 8 0 17 -7 20 -16z"/>
<path d="M1515 2411 c-3 -6 -14 -8 -25 -6 -26 5 -33 -8 -37 -74 -7 -91 -8
-100 -17 -108 -4 -4 -7 -3 -5 2 2 8 -10 110 -17 138 -1 4 -2 13 -3 21 -1 11
-21 15 -85 18 -46 2 -82 0 -80 -4 2 -4 0 -9 -5 -13 -7 -4 -7 -15 -1 -30 7 -17
6 -25 -1 -25 -7 0 -8 -5 -3 -12 8 -12 10 -33 4 -48 -6 -15 -6 -50 1 -50 10 0
6 -34 -6 -42 -6 -5 -4 -8 5 -8 13 0 13 -1 0 -10 -12 -8 -12 -10 -1 -10 11 0
11 -3 0 -17 -12 -15 -12 -16 1 -8 13 8 13 7 1 -8 -9 -12 -10 -17 -2 -17 9 0 9
-5 1 -20 -6 -11 -7 -20 -1 -20 12 0 9 -33 -4 -42 -6 -5 -4 -8 5 -8 13 0 13 -1
0 -10 -12 -8 -12 -10 -1 -10 9 0 10 -4 4 -12 -7 -9 -6 -23 2 -42 8 -18 15 -24
19 -17 4 6 12 8 18 5 6 -4 28 -7 49 -8 30 -2 36 1 27 11 -8 10 -7 13 3 13 10
0 10 3 1 12 -9 9 -7 15 6 25 9 8 12 12 5 9 -15 -8 -27 11 -12 20 8 4 7 9 -2
15 -11 7 -11 9 -1 9 7 0 10 5 6 12 -10 16 -11 99 -1 105 5 3 8 -5 7 -18 -1
-13 -1 -26 0 -29 6 -16 22 -134 23 -167 0 -15 27 -27 27 -12 0 6 6 7 12 3 35
-22 54 -8 49 35 -2 7 1 11 6 8 4 -3 9 18 9 46 2 72 7 117 14 117 3 0 5 -39 5
-87 -1 -97 3 -126 16 -117 5 3 9 0 9 -7 0 -8 4 -8 15 1 8 7 15 9 15 4 0 -5 11
-9 24 -9 13 0 22 4 18 9 -3 5 5 6 18 3 17 -4 20 -3 11 6 -15 15 -15 97 2 97 9
0 9 2 -1 8 -9 7 -12 51 -10 189 l3 180 -58 -3 c-35 -2 -55 1 -52 6 4 6 4 10 1
10 -3 0 -7 -4 -11 -9z"/>
<path d="M1734 2412 c5 -9 -2 -12 -26 -10 l-33 3 -3 -75 c-1 -41 -2 -82 -3
-90 0 -8 2 -27 4 -42 2 -16 0 -28 -4 -28 -5 0 -5 -10 -1 -22 9 -28 9 -49 -1
-65 -5 -7 -5 -13 0 -13 4 0 7 -36 6 -81 -2 -69 0 -79 12 -69 12 10 15 10 15
-1 0 -9 3 -10 8 -4 8 12 41 13 57 3 6 -3 22 3 35 14 14 11 20 17 14 14 -7 -3
-11 4 -11 19 0 14 4 22 10 18 6 -4 7 -1 2 8 -12 19 -14 49 -3 55 4 3 5 11 1
17 -11 18 -10 60 1 76 8 11 8 13 -1 7 -9 -5 -13 1 -13 21 0 22 2 25 10 13 6
-9 10 -10 10 -3 0 6 -5 15 -10 18 -8 5 -7 12 2 23 10 12 10 14 1 8 -10 -5 -12
1 -10 21 2 16 6 34 10 40 3 5 3 13 0 17 -10 10 -14 48 -5 42 5 -3 9 1 9 9 0 8
-4 12 -9 9 -4 -3 -8 2 -8 11 0 10 5 13 12 9 7 -4 8 -3 4 4 -4 7 -20 12 -35 12
-15 0 -33 6 -40 13 -11 10 -13 9 -7 -1z"/>
<path d="M3619 2416 c-2 -2 -29 -6 -59 -7 -35 -2 -62 -9 -74 -21 -10 -9 -24
-15 -29 -11 -6 4 -7 1 -3 -6 5 -7 0 -19 -10 -27 -11 -9 -12 -12 -4 -8 12 6 13
5 4 -7 -6 -8 -10 -38 -8 -67 2 -36 -1 -50 -8 -46 -7 5 -8 2 -3 -6 12 -20 14
-161 3 -154 -6 4 -6 0 0 -12 5 -11 8 -32 7 -49 -2 -16 -1 -24 2 -17 4 10 9 8
20 -7 8 -12 11 -26 7 -33 -4 -6 -3 -8 3 -5 6 4 27 0 46 -8 20 -8 44 -12 53 -8
11 4 15 3 10 -5 -4 -8 3 -8 25 -2 18 5 36 7 40 4 5 -3 9 0 9 6 0 7 7 9 16 6 8
-3 13 -2 10 3 -6 9 38 54 45 47 2 -2 4 36 4 85 0 49 4 89 8 89 5 0 5 5 1 11
-3 6 -7 43 -8 83 -2 40 -6 77 -9 83 -4 6 -1 14 5 16 8 3 6 6 -4 6 -17 1 -23
13 -18 36 1 6 -2 7 -6 3 -4 -4 -21 1 -39 12 -18 11 -34 18 -36 16z m-24 -150
c3 -41 1 -54 -8 -49 -7 4 -5 -2 3 -12 12 -15 12 -17 1 -10 -10 6 -12 4 -5 -6
12 -20 13 -89 1 -89 -6 0 -7 3 -4 7 4 3 1 13 -5 21 -14 17 -19 132 -6 132 5 0
6 -5 2 -12 -5 -7 -3 -8 6 -3 10 6 10 11 -3 20 -19 14 -24 40 -5 29 7 -4 8 -3
4 4 -7 12 2 37 11 28 3 -2 6 -30 8 -60z m-20 -156 c-3 -5 0 -12 7 -17 17 -11
18 -81 1 -87 -7 -3 -13 -2 -14 2 -6 77 -6 121 2 116 5 -3 7 -9 4 -14z"/>
<path d="M3162 2394 c-7 -8 -18 -12 -23 -8 -5 3 -9 2 -8 -3 4 -16 -13 -43 -24
-36 -6 4 -7 1 -2 -7 4 -7 2 -16 -6 -21 -8 -5 -9 -9 -4 -9 6 0 10 -17 8 -37 -7
-90 -8 -143 -3 -143 3 0 5 -31 5 -70 0 -38 4 -70 9 -70 5 0 7 -3 3 -6 -3 -4 1
-13 9 -21 8 -8 11 -20 7 -26 -3 -7 -3 -9 1 -5 4 3 25 0 46 -7 21 -7 41 -11 44
-8 3 4 6 1 6 -6 0 -9 5 -9 20 -1 15 8 20 8 20 -2 0 -8 3 -9 8 -3 4 6 14 10 22
10 8 0 21 5 28 12 8 7 19 10 25 6 7 -3 9 -3 5 1 -7 9 13 36 22 31 3 -2 7 8 8
23 1 14 6 30 11 35 4 4 5 26 1 47 -4 21 -3 43 2 48 5 5 0 8 -11 7 -12 -1 -24
-4 -27 -8 -4 -3 -14 -3 -23 2 -9 4 -22 6 -28 5 -7 -1 -19 -2 -27 -3 -9 -1 -14
-17 -15 -52 -1 -58 -6 -70 -26 -62 -11 4 -15 21 -15 60 0 40 3 52 13 47 10 -6
10 -4 0 7 -16 16 -18 183 -3 174 6 -3 10 -1 10 4 0 6 -6 11 -12 11 -9 0 -8 3
2 9 22 15 32 2 30 -43 -4 -96 -8 -91 68 -91 62 0 68 2 68 20 -1 11 -5 23 -11
28 -6 4 -5 10 3 16 18 11 18 12 3 39 -9 17 -9 22 1 22 10 0 10 2 0 9 -8 5 -15
20 -15 34 -1 14 -6 23 -10 20 -5 -3 -17 3 -29 14 -27 24 -166 29 -186 7z"/>
<path d="M3410 2100 c0 -5 5 -10 11 -10 5 0 7 5 4 10 -3 6 -8 10 -11 10 -2 0
-4 -4 -4 -10z"/>
</g>
</svg>
